<?xml version="1.0" encoding="utf-8"?>
<!-- Generator: Adobe Illustrator 25.3.1, SVG Export Plug-In . SVG Version: 6.00 Build 0)  -->
<svg version="1.1" id="Layer_1" xmlns="http://www.w3.org/2000/svg" xmlns:xlink="http://www.w3.org/1999/xlink" x="0px" y="0px"
	 viewBox="0 0 524.47 162.64" style="enable-background:new 0 0 524.47 162.64;" xml:space="preserve">
<style type="text/css">
	.st0{fill:#073B4C;}
</style>
<g>
	<path class="st0" d="M94.96,102.83H48.04l-14.52,22.44h-9.6l55.2-84h8.76l21.6,84h-8.88L94.96,102.83z M93.28,95.63l-11.4-45.36
		L52.6,95.63H93.28z"/>
	<path class="st0" d="M138.64,64.61c4.24-1.96,9.36-2.94,15.36-2.94l-1.56,8.28l-2.4-0.12c-6.8,0-12.38,1.96-16.74,5.88
		c-4.36,3.92-7.3,9.76-8.82,17.52l-6.36,32.04h-8.52l12.48-63.12h8.16l-2.16,11.52C130.88,69.59,134.4,66.58,138.64,64.61z"/>
	<path class="st0" d="M165.2,106.19c-0.32,1.92-0.48,3.24-0.48,3.96c0,5.6,3.04,8.4,9.12,8.4c3.6,0,6.84-1.08,9.72-3.24l2.04,6.48
		c-3.6,2.72-8.28,4.08-14.04,4.08c-4.72,0-8.46-1.28-11.22-3.84c-2.76-2.56-4.14-6.08-4.14-10.56c0-1.76,0.16-3.4,0.48-4.92
		l7.32-37.2h-11.16l1.32-7.2h11.28l2.76-13.8h8.52l-2.76,13.8h19.2l-1.44,7.2h-19.2L165.2,106.19z"/>
	<path class="st0" d="M208.74,72.18h7.17l-10.5,53.1h-7.17L208.74,72.18z M211.92,59.16c-0.91-0.94-1.36-2.05-1.36-3.33
		c0-1.55,0.52-2.84,1.56-3.89c1.04-1.04,2.37-1.56,3.99-1.56c1.41,0,2.59,0.45,3.53,1.36c0.94,0.91,1.41,1.97,1.41,3.18
		c0,1.62-0.54,2.96-1.62,4.04c-1.08,1.08-2.42,1.62-4.04,1.62C213.99,60.57,212.83,60.1,211.92,59.16z"/>
	<path class="st0" d="M257.66,45.37c-2.17,2.01-3.7,5.15-4.59,9.41l-1.45,7h19.43l-1.45,7.24h-19.19l-11.22,56.24h-8.57l11.22-56.24
		H230.5l1.33-7.24h11.47l1.57-7.97c1.21-6.03,3.64-10.66,7.3-13.88c3.66-3.22,8.47-4.83,14.42-4.83c2.57,0,4.99,0.36,7.24,1.09
		c2.25,0.72,4.1,1.73,5.55,3.02l-3.74,6.28c-2.33-2.09-5.35-3.14-9.05-3.14C262.81,42.36,259.83,43.36,257.66,45.37z"/>
	<path class="st0" d="M339.32,62.15l-12.6,63.12h-8.16l2.04-9.96c-3.04,3.36-6.64,5.96-10.8,7.8c-4.16,1.84-8.76,2.76-13.8,2.76
		c-5.36,0-10.12-1.08-14.28-3.24c-4.16-2.16-7.4-5.26-9.72-9.3c-2.32-4.04-3.48-8.78-3.48-14.22c0-7.12,1.54-13.52,4.62-19.2
		c3.08-5.68,7.34-10.14,12.78-13.38c5.44-3.24,11.52-4.86,18.24-4.86c6,0,11.04,1.18,15.12,3.54c4.08,2.36,7.04,5.74,8.88,10.14
		l2.64-13.2H339.32z M311.84,114.53c4.16-2.52,7.42-6.04,9.78-10.56c2.36-4.52,3.54-9.58,3.54-15.18c0-6.16-1.82-10.98-5.46-14.46
		c-3.64-3.48-8.74-5.22-15.3-5.22c-5.2,0-9.88,1.28-14.04,3.84c-4.16,2.56-7.42,6.1-9.78,10.62c-2.36,4.52-3.54,9.58-3.54,15.18
		c0,6.16,1.82,10.96,5.46,14.4c3.64,3.44,8.74,5.16,15.3,5.16C303,118.31,307.68,117.05,311.84,114.53z"/>
	<path class="st0" d="M354.56,122.57c-4.4-2.2-7.78-5.32-10.14-9.36c-2.36-4.04-3.54-8.74-3.54-14.1c0-7.12,1.56-13.52,4.68-19.2
		c3.12-5.68,7.48-10.14,13.08-13.38c5.6-3.24,11.92-4.86,18.96-4.86c5.84,0,10.86,1.06,15.06,3.18c4.2,2.12,7.46,5.26,9.78,9.42
		l-7.2,4.2c-3.6-6.24-9.72-9.36-18.36-9.36c-5.2,0-9.9,1.28-14.1,3.84c-4.2,2.56-7.48,6.08-9.84,10.56
		c-2.36,4.48-3.54,9.56-3.54,15.24c0,6.16,1.82,10.96,5.46,14.4c3.64,3.44,8.82,5.16,15.54,5.16c4.08,0,7.86-0.78,11.34-2.34
		c3.48-1.56,6.34-3.82,8.58-6.78l6.12,4.68c-2.8,3.76-6.54,6.7-11.22,8.82c-4.68,2.12-9.74,3.18-15.18,3.18
		C364.12,125.87,358.96,124.78,354.56,122.57z"/>
	<path class="st0" d="M418.44,106.19c-0.32,1.92-0.48,3.24-0.48,3.96c0,5.6,3.04,8.4,9.12,8.4c3.6,0,6.84-1.08,9.72-3.24l2.04,6.48
		c-3.6,2.72-8.28,4.08-14.04,4.08c-4.72,0-8.46-1.28-11.22-3.84c-2.76-2.56-4.14-6.08-4.14-10.56c0-1.76,0.16-3.4,0.48-4.92
		l7.32-37.2h-11.16l1.32-7.2h11.28l2.76-13.8h8.52l-2.76,13.8h19.2l-1.44,7.2h-19.2L418.44,106.19z"/>
	<path class="st0" d="M452.38,123.71c-4.6-1.44-8.14-3.28-10.62-5.52l4.08-6.72c2.4,2.08,5.56,3.76,9.48,5.04
		c3.92,1.28,8.04,1.92,12.36,1.92c6,0,10.62-0.98,13.86-2.94c3.24-1.96,4.86-4.74,4.86-8.34c0-2-0.66-3.6-1.98-4.8
		c-1.32-1.2-2.94-2.12-4.86-2.76c-1.92-0.64-4.72-1.36-8.4-2.16c-4.4-0.96-7.96-1.92-10.68-2.88c-2.72-0.96-5.04-2.48-6.96-4.56
		c-1.92-2.08-2.88-4.96-2.88-8.64c0-6,2.48-10.78,7.44-14.34c4.96-3.56,11.6-5.34,19.92-5.34c4.08,0,8.06,0.54,11.94,1.62
		c3.88,1.08,7.02,2.5,9.42,4.26l-3.6,6.84c-2.4-1.76-5.22-3.1-8.46-4.02c-3.24-0.92-6.58-1.38-10.02-1.38
		c-5.76,0-10.24,1.04-13.44,3.12c-3.2,2.08-4.8,4.88-4.8,8.4c0,2.08,0.68,3.76,2.04,5.04c1.36,1.28,3.06,2.24,5.1,2.88
		c2.04,0.64,4.82,1.32,8.34,2.04c4.32,0.96,7.82,1.9,10.5,2.82c2.68,0.92,4.98,2.42,6.9,4.5c1.92,2.08,2.88,4.88,2.88,8.4
		c0,6.16-2.54,10.98-7.62,14.46c-5.08,3.48-11.86,5.22-20.34,5.22C461.8,125.87,456.98,125.15,452.38,123.71z"/>
</g>
</svg>
